{"accessors":[{"bufferView":0,"componentType":5125,"count":74067,"name":"index","type":"SCALAR"},{"bufferView":1,"componentType":5126,"count":22230,"max":[0.18595999479293823,1.0021699666976929,1.5133299827575684],"min":[-1.2253299951553345,-0.6172599792480469,-0.21911999583244324],"name":"position","type":"VEC3"},{"bufferView":1,"byteOffset":12,"componentType":5126,"count":22230,"name":"texture_cooridinate","type":"VEC2"}],"asset":{"version":"2.0"},"bufferViews":[{"buffer":0,"byteLength":296268,"name":"indices"},{"buffer":0,"byteLength":444600,"byteOffset":296268,"byteStride":20,"name":"vertices"},{"buffer":1,"byteLength":1716310}],"buffers":[{"byteLength":740868,"name":"geometry","uri":"data:application/octet-stream;base64,"},{"byteLength":1716310,"name":"diffuse_texture","uri":"data:application/octet-stream;base64,"}],"extensionsUsed":["KHR_materials_unlit"],"images":[{"bufferView":2,"mimeType":"image/jpeg"}],"materials":[{"extensions":{"KHR_materials_unlit":{}},"name":"material_0","pbrMetallicRoughness":{"baseColorTexture":{"index":0}}}],"meshes":[{"primitives":[{"attributes":{"POSITION":1,"TEXCOORD_0":2},"indices":0,"material":0,"mode":4}]}],"nodes":[{"mesh":0}],"samplers":[{"wrapR":10497,"wrapS":10497,"wrapT":10497}],"scene":0,"scenes":[{"nodes":[0]}],"textures":[{"sampler":0,"source":0}]}
